<svg xmlns="http://www.w3.org/2000/svg" data-name="Layer 1" viewBox="0 -5 90 90" x="0px" y="0px"><path d="m10.18,44.348c0,.873-.707,1.58-1.58,1.58s-1.58-.707-1.58-1.58.707-1.58,1.58-1.58,1.58.707,1.58,1.58Zm81.477,0c-.873,0-1.58.707-1.58,1.58s.707,1.58,1.58,1.58,1.58-.707,1.58-1.58-.707-1.58-1.58-1.58ZM2.217,46.735c.438-.755,1.406-1.011,2.16-.573l5.705,3.312,15.014-25.375-5.683-3.304c-.754-.439-1.011-1.406-.572-2.16.439-.755,1.406-1.011,2.16-.572l7.06,4.104c.364.212.629.56.735.968.106.408.045.841-.169,1.203l-.934,1.579c1.628.024,3.113-.152,4.556-.326,3.307-.4,6.447-.778,9.764,1.62l1.987-1.17c3.609-2.125,9.001-1.425,14.217-.748,2.879.374,5.598.727,7.612.531.937-.09,3.884-.656,8.198-1.573l-.191-.412c-.177-.382-.194-.819-.047-1.214.147-.395.445-.715.829-.889l7.435-3.37c.795-.36,1.731-.008,2.091.787.36.795.008,1.731-.787,2.091l-5.984,2.713,12.384,26.756,6.008-2.719c.795-.36,1.731-.007,2.091.788.36.795.007,1.731-.788,2.091l-7.435,3.365c-.211.096-.433.141-.651.141-.597,0-1.168-.34-1.435-.917l-1.563-3.377-.667.19c-1.877,1.678-4.233,2.918-7.145,3.76.762,1.709.714,3.749-.311,5.477-.811,1.367-2.109,2.338-3.655,2.732-.257.066-.515.113-.774.144.316,1.475.073,2.986-.694,4.278-.811,1.368-2.11,2.338-3.658,2.733-.367.094-.738.152-1.107.176.236,1.394-.02,2.805-.743,4.023-1.109,1.874-3.098,2.918-5.138,2.918-.573,0-1.149-.085-1.711-.254-.01,1.015-.278,2.041-.832,2.975-1.109,1.874-3.098,2.918-5.138,2.918-1.033,0-2.079-.267-3.031-.829l-4.459-2.651c-.995.812-2.24,1.25-3.506,1.25-.943,0-1.898-.242-2.768-.751-.852-.499-1.539-1.204-2.012-2.045-.571.433-1.227.754-1.943.941-.469.123-.943.184-1.414.184-.965,0-1.914-.255-2.766-.754-1.328-.778-2.21-2.028-2.56-3.413-.473.129-.963.196-1.457.196-.944,0-1.9-.242-2.773-.752-1.329-.778-2.21-2.03-2.559-3.417-.472.128-.96.195-1.452.195-.946,0-1.903-.243-2.777-.755-1.264-.736-2.168-1.93-2.544-3.36-.376-1.431-.174-2.916.568-4.183l.864-1.477c-.771-1.307-1.23-2.814-1.676-4.282-.46-1.512-.896-2.947-1.58-3.798l-1.99-.984-.57.963c-.295.498-.821.776-1.361.776-.269,0-.542-.069-.792-.214l-7.06-4.098c-.755-.438-1.011-1.405-.573-2.16Zm20.094,20.329c.611-.16,1.121-.543,1.436-1.081l3.963-6.773s0,0,0-.001h0c.652-1.119.273-2.564-.846-3.219-1.12-.654-2.564-.277-3.218.84l-3.964,6.774c-.315.537-.399,1.171-.238,1.784.161.612.545,1.121,1.081,1.434.541.317,1.173.402,1.785.242Zm8.221,2.89l3.965-6.776c.655-1.119.276-2.562-.846-3.219-.36-.211-.763-.319-1.173-.319-.201,0-.404.026-.605.079-.61.16-1.119.545-1.434,1.084l-3.965,6.776c-.656,1.12-.279,2.564.84,3.219,1.12.654,2.564.275,3.217-.844Zm6.791,3.969l3.965-6.776c.652-1.119.273-2.564-.846-3.219-1.118-.655-2.562-.275-3.218.846l-3.964,6.774c-.655,1.119-.276,2.562.846,3.219.538.315,1.171.4,1.782.24.611-.16,1.121-.545,1.436-1.084Zm8.138,1.669l2.632-4.468c.312-.531.396-1.16.237-1.771-.16-.615-.546-1.128-1.085-1.444-.37-.217-.776-.319-1.177-.319-.81,0-1.602.419-2.043,1.168h0s-2.631,4.468-2.631,4.468c-.313.531-.399,1.158-.241,1.766.16.617.547,1.132,1.089,1.449,1.115.653,2.56.272,3.22-.849Zm-15.265-37.756c-.527.311-.833.756-.935,1.359-.097.6.048,1.123.446,1.592,1.477,1.729,3.979,2.146,5.945.989l7.989-4.708c.682-.402,1.556-.237,2.045.386,6.263,7.979,13.241,8.627,19.848,8.139.323-.024.644.052.922.217l9.316,5.526c.019.011.038.024.057.036,3.284-.735,5.778-1.937,7.61-3.666.185-.174.408-.301.653-.371l.547-.156-9.252-19.989c-3.666.784-7.866,1.644-9.255,1.777-2.37.23-5.261-.145-8.323-.543-4.468-.58-9.532-1.238-12.206.337l-15.408,9.075Zm-4.287-8.908l-11.722,19.811,2.305,1.139.193.202c1.299,1.36,1.901,3.337,2.482,5.249.191.629.386,1.266.602,1.87l1.15-1.966c1.534-2.619,4.916-3.503,7.541-1.971,1.327.777,2.209,2.029,2.558,3.416.018-.005.035-.011.053-.015,1.427-.374,2.909-.171,4.176.57,1.328.778,2.21,2.028,2.559,3.413,1.38-.376,2.903-.221,4.232.557,1.331.78,2.214,2.037,2.561,3.43,1.384-.381,2.912-.228,4.242.551,1.268.743,2.173,1.941,2.546,3.374.372,1.428.169,2.909-.571,4.17l-2,3.395,4.172,2.48c1.33.785,3.055.346,3.84-.981.77-1.297.335-3.036-.945-3.823l-1.43-.849c-.75-.445-.998-1.415-.552-2.165.445-.75,1.415-.998,2.165-.552l1.4.831v-.002c.024.013.045.028.067.042l3.135,1.861c1.331.785,3.056.347,3.841-.98.379-.639.484-1.394.296-2.127-.187-.731-.64-1.34-1.274-1.715-.022-.013-.042-.028-.063-.042l-4.519-2.681c-.751-.445-.998-1.415-.553-2.165.445-.751,1.414-.998,2.165-.553l5.616,3.331c.64.381,1.393.488,2.121.302.729-.186,1.341-.642,1.721-1.283.378-.637.483-1.39.296-2.122-.186-.728-.636-1.337-1.268-1.715l-5.009-2.973c-.75-.445-.998-1.415-.552-2.165.445-.75,1.415-.998,2.165-.552l4.988,2.961s.008.004.012.006c.008.005.015.01.023.015l.626.372c.641.38,1.396.487,2.123.301.728-.186,1.338-.641,1.718-1.283.378-.636.483-1.39.296-2.122-.187-.732-.64-1.343-1.277-1.721l-8.892-5.274c-6.714.436-14.376-.35-21.189-8.302l-6.823,4.021c-3.291,1.937-7.477,1.238-9.954-1.662-1.008-1.186-1.408-2.622-1.159-4.157.256-1.522,1.125-2.785,2.447-3.565l10.318-6.077c-1.873-.844-3.757-.616-6.281-.311-1.831.222-3.906.472-6.296.294-.148-.011-.289-.044-.422-.092Z"/></svg>