<svg xmlns="http://www.w3.org/2000/svg" version="1.1" viewBox="0 0 100 100">
 <path d="m85.344 24.414h-70.688c-2.7266 0-4.9414 2.2188-4.9414 4.9414v46.371c0 2.7266 2.2188 4.9414 4.9414 4.9414h27.691v6.9766l-12.887 0.003907c-2.3672 0-4.293 1.9258-4.293 4.293 0 2.3672 1.9258 4.293 4.293 4.293h41.082c2.3672 0 4.293-1.9258 4.293-4.293 0-2.3672-1.9258-4.293-4.293-4.293h-12.887v-6.9766h27.691c2.7266 0 4.9414-2.2188 4.9414-4.9414v-46.375c0-2.7227-2.2188-4.9414-4.9453-4.9414zm2.9336 4.9414v24.48h-19.246v-7.9844h4.1133c0.67969 0.019532 1.3242-0.18359 1.8711-0.57812l6.168-4.4453c1.3828-0.99609 1.6953-2.9258 0.69922-4.3086-0.99609-1.3789-2.9258-1.6953-4.3086-0.69922l-5.3555 3.8594h-5.8672c0.66797-0.86719 1.082-1.9375 1.082-3.1133 0-2.8242-2.2969-5.1211-5.1211-5.1211s-5.1211 2.2969-5.1211 5.1211c0 1.1758 0.41406 2.2461 1.082 3.1133h-5.8672l-5.3555-3.8594c-1.3789-0.99609-3.3125-0.67969-4.3086 0.69922-0.99609 1.3828-0.67969 3.3125 0.69922 4.3086l6.168 4.4453c0.54688 0.39453 1.1992 0.59375 1.8711 0.57812h4.1133v7.9844h-21.176v-27.41h50.926c1.6172 0 2.9336 1.3125 2.9336 2.9297zm-54.52 26.492h21.844v7.7891c0 2.1289 1.7305 3.8594 3.8594 3.8594 1.1289 0 2.1484-0.48828 2.8555-1.2656 0.70703 0.77734 1.7266 1.2656 2.8555 1.2656 2.1289 0 3.8594-1.7305 3.8594-3.8594v-7.7891h19.246v15.668h-74.637zm25.445-19.277c0-1.7148 1.3945-3.1133 3.1133-3.1133 1.7148 0 3.1133 1.3945 3.1133 3.1133 0 1.7148-1.3945 3.1133-3.1133 3.1133-1.7148-0.003906-3.1133-1.3984-3.1133-3.1133zm13.344 5.1211c0.21094 0 0.41797-0.066406 0.58594-0.19141l5.6211-4.0469c0.48047-0.34766 1.1562-0.23828 1.5039 0.24219 0.34766 0.48047 0.23828 1.1562-0.24219 1.5039l-6.168 4.4453c-0.19141 0.13672-0.41797 0.20703-0.65625 0.19922h-0.027344-5.1367c-0.55469 0-1.0039 0.44922-1.0039 1.0039v18.785c0 1.0195-0.82813 1.8516-1.8516 1.8516-1.0195 0-1.8516-0.82812-1.8516-1.8516v-9.3203c0-0.55469-0.44922-1.0039-1.0039-1.0039-0.55469 0-1.0039 0.44922-1.0039 1.0039v9.3203c0 1.0195-0.82812 1.8516-1.8516 1.8516-1.0195 0-1.8516-0.82812-1.8516-1.8516l0.003906-18.785c0-0.55469-0.44922-1.0039-1.0039-1.0039h-5.1328-0.027343c-0.23828 0.007812-0.46484-0.0625-0.65625-0.19922l-6.168-4.4453c-0.48047-0.34766-0.58984-1.0195-0.24609-1.5039 0.34766-0.48047 1.0195-0.58984 1.5039-0.24609l5.6211 4.0469c0.17188 0.125 0.375 0.19141 0.58594 0.19141zm-57.891-15.266h17.754v27.926l-20.688 16.109v-41.105c0-1.6172 1.3164-2.9297 2.9336-2.9297zm41.992 63.23h13.891c1.2578 0 2.2812 1.0234 2.2812 2.2812s-1.0234 2.2812-2.2812 2.2812h-41.078c-1.2578 0-2.2812-1.0234-2.2812-2.2812s1.0234-2.2812 2.2812-2.2812h13.891c0.55469 0 1.0039-0.44922 1.0039-1.0039v-7.9805h11.289v7.9805c0 0.55469 0.44922 1.0039 1.0039 1.0039zm28.695-10.996h-70.688c-1.6172 0-2.9336-1.3164-2.9336-2.9336v-2.2031h76.555v2.2031c0 1.6172-1.3164 2.9336-2.9336 2.9336zm-44.945-69.492c-0.39063-0.39062-0.39063-1.0273 0-1.4219 2.5625-2.5664 5.9727-3.9766 9.6016-3.9766 3.625 0 7.0352 1.4141 9.6016 3.9766 0.39063 0.39062 0.39063 1.0273 0 1.4219-0.39062 0.39062-1.0273 0.39062-1.4219 0-2.1836-2.1836-5.0898-3.3867-8.1797-3.3867s-5.9961 1.2031-8.1797 3.3867c-0.19531 0.19531-0.45312 0.29297-0.71094 0.29297s-0.51172-0.097657-0.71094-0.29297zm9.6016 7.2891c0.55469 0 1.0039 0.44922 1.0039 1.0039v0.64453c0 0.55469-0.44922 1.0039-1.0039 1.0039s-1.0039-0.44922-1.0039-1.0039v-0.64453c0-0.55469 0.44922-1.0039 1.0039-1.0039zm3.6445-2.7539c-0.97266-0.97266-2.2695-1.5078-3.6445-1.5078s-2.6719 0.53516-3.6445 1.5078c-0.39062 0.39062-1.0273 0.39062-1.4219 0-0.39062-0.39062-0.39062-1.0273 0-1.4219 1.3516-1.3516 3.1523-2.0977 5.0664-2.0977s3.7148 0.74609 5.0664 2.0977c0.39062 0.39062 0.39062 1.0273 0 1.4219-0.19531 0.19531-0.45312 0.29297-0.71094 0.29297-0.25781 0-0.51562-0.097656-0.71094-0.29297z"/>
</svg>